<svg width="124" height="40" viewBox="0 0 124 40" fill="none" xmlns="http://www.w3.org/2000/svg">
<g id="Group 1000004197">
<path id="Vector" d="M47.8312 34.8931C43.2857 31.965 37.1168 31.4512 27.1682 34.2113C16.5622 36.7037 13.026 38.3014 8.38195 35.0941C6.59781 33.5185 5.95816 30.9818 6.4358 27.3277C7.54363 21.3709 10.5374 15.6384 15.8553 9.27976C18.8235 5.972 21.5769 3.13334 25.2125 1.99344C27.999 1.27835 27.7385 3.4682 27.4013 3.78139C27.0455 3.78139 26.4479 3.83743 25.986 4.13886C25.6111 4.42959 24.5821 5.36839 24.5268 6.6312C24.4471 8.56437 26.4476 8.16201 27.3105 7.1006C28.2406 5.90451 29.6152 3.61403 28.5339 1.4793C28.0807 0.719474 27.2976 0.194343 26.3254 0.0155326C22.9963 -0.17473 19.8959 1.41227 17.0343 3.16678C10.7764 7.51396 5.77049 13.5376 2.93793 20.1311C1.30497 24.1094 -0.171931 29.8081 2.04174 34.4463C3.75441 37.6646 7.3097 39.3741 11.5515 39.0166C14.5265 38.704 18.124 37.7425 20.5435 37.1619C22.9631 36.5803 35.3482 32.3231 39.4177 39.7328C39.4177 39.7328 40.7709 37.1059 44.1527 37.0499C46.933 36.7933 50.9441 37.8547 53.8649 40C52.8918 38.5365 50.1328 36.3797 47.8312 34.8931Z" fill="#D5D5D5"/>
<path id="Vector_2" d="M28.4311 10.0284C26.1147 8.50858 21.4589 11.4141 17.7299 16.3981C14.3198 20.8686 12.8473 26.0645 14.4499 28.4672C16.8335 31.2944 21.2589 27.1821 23.1407 24.9809L23.3835 24.7236C24.6633 23.3491 25.6519 21.695 26.609 20.1079C26.609 20.1079 27.4885 18.6551 27.5305 18.5879C28.0741 18.4877 28.7289 18.3312 29.4667 18.1188C29.4562 18.1521 26.6438 22.8794 26.9307 25.2257C27.02 25.9416 26.9519 28.5565 29.5049 29.3498C32.9076 29.9201 35.6248 27.2824 38.0218 24.9356C38.0218 24.9356 38.4303 24.5448 38.6613 24.3217C38.6029 24.5557 38.5267 24.868 38.5267 24.868C37.5305 28.3324 38.8733 29.0594 39.7133 29.3275C42.2519 30.0657 45.2846 26.3775 45.2946 26.3775C45.2158 27.5393 44.986 28.5002 46.2106 29.2715C47.3664 29.6853 48.5362 29.0543 49.4255 28.462C52.6284 26.2048 55.2087 22.6717 57.2927 19.6179H55.9633C55.9476 19.6179 52.6831 24.3497 50.5631 25.3781C50.5598 25.3781 50.1739 25.5762 49.9517 25.4195C49.6764 25.1848 49.785 24.6966 49.9549 24.3509C49.9656 24.3285 58.1402 10.1505 58.1402 10.1505H54.2806C54.2806 10.1505 53.859 10.8326 53.8246 10.8774C53.7987 10.8551 53.7368 10.7378 53.6941 10.6816C51.3028 7.37387 45.8877 12.4618 41.8108 18.3621C40.2412 20.6309 38.2428 23.1854 36.1707 25.0292C36.1707 25.0292 33.1008 27.8431 31.7893 25.8214C31.3098 24.9719 31.4573 23.73 31.7277 22.9145C33.2549 18.5671 35.8863 14.6219 38.8809 12.2414C39.7261 11.5826 40.645 11.392 41.1009 11.6714C41.5354 11.9289 41.6055 12.5653 41.3307 13.0013C40.6333 12.979 40.0744 13.1909 39.6203 13.6603C38.7255 14.5991 38.4146 15.5045 38.6991 16.3539C40.0811 18.3207 42.8375 14.4316 42.7042 12.0625C42.6565 11.213 42.2035 10.4086 41.527 10.0171C40.5191 9.41393 38.9814 9.57014 37.9863 10.051C36.654 10.5537 34.5453 12.308 33.3144 13.6716C31.7649 15.3817 29.1071 17.2813 28.2761 17.0686C28.5478 16.342 30.7926 11.7491 28.4311 10.0284ZM47.0392 16.8229C47.79 15.7838 49.9752 13.001 50.508 12.5317C52.2998 10.9554 53.0159 11.649 53.0779 12.1404C51.4057 15.1352 49.4321 18.5662 47.5765 21.6507C47.5803 21.6397 46.9958 22.5335 46.9958 22.5335C46.1763 23.7847 45.3511 24.8577 44.005 25.6062C43.8131 25.6626 43.4967 25.685 43.2861 25.5279C43.0326 25.3603 42.9326 25.0808 42.9612 24.7902C43.042 23.8294 44.0201 20.8909 47.0392 16.8229ZM26.0423 18.622C26.0423 18.622 26.0086 18.7229 25.9921 18.7559C25.9878 18.7559 24.3092 21.4935 24.3092 21.4935C23.2962 22.8459 22.0314 24.545 20.4503 25.3604C19.9817 25.5168 19.3338 25.6177 19.0037 25.2045C18.3038 24.3662 18.6645 23.2038 18.9576 22.2654L19.0614 21.93C19.9015 19.6505 21.2344 17.6386 22.5321 15.7723C22.5483 15.7613 22.5846 15.7502 22.5977 15.7502C22.6009 15.7613 22.6061 15.7613 22.6083 15.7838C23.4225 17.348 24.9491 18.0741 26.0909 18.4099C26.0977 18.4099 26.1052 18.421 26.1052 18.4435C26.1054 18.4767 26.0868 18.5218 26.0423 18.622ZM27.6325 15.3927C27.625 15.415 26.8849 17.1136 26.8849 17.1136C26.7779 17.2029 26.6087 17.1583 26.4147 17.1136L26.0825 17.0574C25.0391 16.7335 24.2521 16.0406 24.0094 15.2137C23.6749 13.6044 25.0496 12.3416 25.6552 11.8837C26.2364 11.481 27.1399 11.2688 27.6646 11.6824C27.9882 12.0625 28.1108 12.554 28.1108 13.0908C28.1109 13.8168 27.8868 14.6326 27.6325 15.3927ZM76.4259 20.5776C76.0536 19.7732 75.1702 19.259 74.2287 19.3148C71.1712 19.5943 68.1806 22.1087 66.6102 25.718C65.7863 27.5733 65.3366 29.1041 65.0417 31.5403C65.9926 30.4454 67.9319 28.6463 70.1325 27.6628C70.1325 27.6628 70.432 25.3273 71.959 23.2486C72.5368 22.3878 73.693 21.0022 74.9914 21.3708C76.126 21.7509 75.7271 24.8913 74.2194 27.9303C73.1038 30.1657 71.3966 32.4013 69.6693 33.9431C68.1421 35.2394 65.8826 36.804 63.9058 35.5972C62.6607 34.8599 62.0256 33.3172 62.1597 31.3282C62.7546 25.6849 65.3236 20.8795 68.9998 15.4037C72.7904 10.319 76.9689 5.10019 82.5978 2.3171C83.7459 1.73608 84.8092 1.60201 85.7283 1.95963C85.7283 1.95963 80.4443 4.86518 77.9255 10.2406C77.2848 11.6042 76.3937 13.4476 77.2911 15.0794C77.76 15.9285 78.5925 15.9957 79.263 15.951C82.3504 15.2356 84.3451 12.3525 85.9749 9.71535C86.9198 7.715 87.7596 5.72579 87.7596 3.51304C87.7596 3.2449 87.7457 2.88743 87.7231 2.61899C89.1981 1.83702 92.2229 3.22245 92.2229 3.22245C94.5865 4.00503 99.6193 7.86067 101.317 8.5979C102.145 7.63697 103.506 6.18435 104.272 5.45781L103.163 4.77601C101.387 3.692 99.5099 2.66373 97.6624 1.64691C93.4664 -0.643728 90.0509 0.160689 88.3127 0.786601C87.6295 1.03229 87.0053 1.2447 87.0053 1.2447C85.7153 -0.163338 83.5995 -0.0295738 82.0406 0.350646C76.4344 1.95978 71.2294 5.88216 65.649 12.6881C61.5463 18.0188 59.0014 22.6231 57.645 27.1713C56.5995 30.2332 56.2817 34.7367 58.8336 37.4077C61.0033 39.6758 63.8803 39.1844 65.9118 38.369C70.3136 36.2009 74.2699 31.5294 76.2413 26.154C76.7171 24.5561 77.2449 22.2988 76.4259 20.5776ZM86.5478 3.73674C85.9651 10.4196 80.7705 14.3424 79.485 14.6549C78.7061 14.8111 77.377 14.4649 78.5637 11.6603C80.3108 7.88266 83.2941 4.67568 86.4947 3.0328C86.5727 3.31224 86.5706 3.49059 86.5478 3.73674ZM117.362 4.58574C114.568 6.1729 111.671 7.20071 108.165 6.84324C107.193 7.9387 106.247 9.0673 105.375 10.2293C110.296 11.481 115.514 8.69838 118.423 6.05013C121.502 3.37912 123.08 0.015625 123.08 0.015625C123.08 0.015625 120.773 2.65273 117.362 4.58574ZM64.5549 10.1508H60.8895L58.822 13.5102H62.4866L64.5549 10.1508Z" fill="#D5D5D5"/>
<path id="Vector_3" d="M108.15 35.2043C107.756 35.4724 107.203 35.2662 107.41 34.6518C107.925 33.0872 109.976 29.8989 109.976 29.8989L115.686 19.771H111.774C111.588 20.0764 111.191 20.7776 111.191 20.7776C111.01 20.4762 110.469 19.806 110.246 19.661C109.291 19.0571 107.889 19.3427 106.921 19.8901C102.716 22.349 99.648 27.2071 97.2282 30.9957C97.2282 30.9957 94.6811 35.2071 93.2672 35.5203C92.1634 35.6098 92.2773 34.1228 92.3251 33.7764C92.7519 31.2727 93.743 28.8926 94.7415 26.7357C96.7727 25.3277 99.0905 23.4839 101.197 21.4612C105.769 17.0913 109.622 12.1406 110.186 11.0343C110.186 11.0343 109.576 11.1574 108.856 11.1795C105.339 16.0855 98.1421 23.2156 95.9602 24.277C96.9268 21.952 103.172 10.8554 108.486 5.54726L109.322 4.74238C110.616 3.47956 111.955 2.18331 113 1.9709C113.11 1.95975 113.252 1.9709 113.374 2.22835C113.421 3.21158 113.055 3.93812 112.635 4.76498L112.047 5.97207C112.047 5.97207 112.88 5.81555 113.428 5.63628C114.063 4.44111 114.766 3.09965 114.507 1.50196C114.421 0.987827 114.048 0.596766 113.562 0.507284C111.977 0.205552 110.249 1.37858 108.859 2.32883L108.803 2.36212C101.656 7.96097 95.6215 16.0296 90.3455 27.0485C89.9631 27.3386 88.4858 27.6854 88.2347 27.5175C88.7557 26.445 89.4117 25.0031 89.7399 23.4385C89.7967 22.9913 89.8495 22.5335 89.8495 22.0865C89.8495 21.1247 89.6186 20.2198 88.7571 19.5943C87.7469 19.0913 86.4982 19.3262 85.6563 19.7058C81.8851 21.2703 79.0664 25.1373 77.0323 28.3218C75.9384 30.3451 74.8476 32.512 74.5456 34.9934C74.3329 36.9375 74.7659 38.1894 75.8715 38.8153C77.0082 39.396 78.439 38.7924 79.001 38.5021C82.8217 36.4904 85.4913 32.4564 87.5955 28.7685C87.6792 28.7575 88.8281 28.7242 89.6973 28.5003C89.7087 28.5003 89.7136 28.5003 89.7329 28.5119C89.6831 28.679 89.234 30.0204 89.234 30.0204C87.9003 33.9314 87.2836 36.5914 88.5433 38.1669C90.3435 40.3908 93.3239 38.089 95.7483 35.0488C95.2279 38.6917 97.1158 39.2621 98.5552 38.9829C100.208 38.5361 102.051 36.77 102.906 35.8651C102.631 36.9265 102.706 38.8267 104.21 39.0164C105.24 39.2069 106.012 38.6462 106.905 38.1655C110.107 36.422 113.939 30.6123 114.935 28.9326H113.63C112.215 31.0708 110.415 33.8738 108.15 35.2043ZM79.4098 34.8152C79.2067 34.5133 79.1394 34.1835 79.1327 33.8268C79.0937 31.6354 81.4514 27.7113 83.1153 25.5735H83.1189C83.8161 27.1005 85.3953 28.0821 86.3486 28.4957C85.1647 31.1333 81.104 36.7819 79.4098 34.8152ZM87.017 27.3166C86.9043 27.3954 84.9129 26.7244 84.528 24.8806C84.2015 23.2931 85.2947 22.0528 86.3523 21.4276C86.8062 21.0697 87.49 20.9472 87.9916 21.1253C88.4572 21.4388 88.5833 21.9979 88.5833 22.6003C88.5833 22.9699 88.5343 23.3495 88.4911 23.6958L88.4816 23.7743C88.1481 25.0133 87.6558 26.2039 87.017 27.3166ZM102.989 34.1112C102.987 34.1112 102.611 34.4464 102.611 34.4464C102.074 34.9268 101.521 35.4408 100.854 35.1836C100.669 35.1168 100.54 34.8711 100.508 34.6805C100.478 33.3059 101.097 32.0322 101.697 30.7919L101.851 30.4677C103.578 27.5846 105.585 24.1873 108.533 21.8297C109.03 21.4713 109.569 21.1702 110.138 21.405C110.268 21.5278 110.421 21.7402 110.421 21.9523C110.421 22.0196 110.361 22.1983 110.327 22.254C109.503 23.5845 108.719 24.9811 107.957 26.3221C106.467 28.9706 104.921 31.7081 102.989 34.1112Z" fill="#D5D5D5"/>
</g>
</svg>
