<svg width="142" height="40" viewBox="0 0 142 40" fill="none" xmlns="http://www.w3.org/2000/svg">
<g id="Group">
<path id="Vector" fill-rule="evenodd" clip-rule="evenodd" d="M131.669 16.5423C131.543 16.5676 131.416 16.8462 131.416 16.998C131.391 18.0115 131.366 20.6968 131.366 22.5206C131.366 22.5714 131.441 22.6727 131.517 22.6727C131.897 22.698 132.809 22.7232 133.595 22.7232C134.684 22.7232 135.317 22.5714 135.672 22.4196C136.584 21.9634 137.014 20.9754 137.014 19.8859C137.014 17.429 135.292 16.4916 132.733 16.4916C132.556 16.4663 132.05 16.4663 131.669 16.5423ZM138.205 27.8659C138.205 25.358 136.356 23.9646 133.012 23.9646C132.86 23.9646 131.796 23.9393 131.543 23.9898C131.467 24.0153 131.366 24.0661 131.366 24.1422C131.366 25.9405 131.34 28.8034 131.416 29.9179C131.467 30.3991 131.822 31.0832 132.252 31.2858C132.708 31.5391 133.747 31.5896 134.456 31.5896C136.457 31.5896 138.205 30.4751 138.205 27.8659ZM126.502 15.1492C126.755 15.1492 127.515 15.225 129.465 15.225C131.315 15.225 132.784 15.1745 134.583 15.1745C136.786 15.1745 139.826 15.9596 139.826 19.2529C139.826 20.8741 138.686 22.1662 137.192 22.7995C137.116 22.8248 137.116 22.8753 137.192 22.9006C139.32 23.4328 141.194 24.7499 141.194 27.2323C141.194 29.6645 139.675 31.2097 137.47 32.1724C136.128 32.7549 134.456 32.9575 132.759 32.9575C131.467 32.9575 127.996 32.8057 126.071 32.8565C125.869 32.7802 126.248 31.8683 126.426 31.7165C126.882 31.6909 127.236 31.6657 127.718 31.5136C128.402 31.3365 128.477 31.1337 128.579 30.0952C128.63 29.2085 128.63 26.067 128.63 23.838C128.63 20.7728 128.655 18.6956 128.63 17.6824C128.604 16.8973 128.326 16.6436 127.768 16.4916C127.337 16.4158 126.628 16.3142 126.046 16.2385C125.919 16.1116 126.349 15.2502 126.502 15.1492ZM111.885 30.9058C112.493 31.3868 113.684 31.5894 114.748 31.5894C116.115 31.5894 117.483 31.3365 118.801 30.1454C120.143 28.9299 121.081 27.0553 121.081 24.0661C121.081 21.2033 119.991 18.8727 117.762 17.5051C116.495 16.7194 114.874 16.3905 112.999 16.3905C112.442 16.3905 111.91 16.4158 111.581 16.5676C111.505 16.6184 111.328 16.8462 111.328 16.9728C111.277 17.4795 111.277 21.3806 111.277 23.6607C111.277 26.0165 111.277 29.3098 111.328 29.6898C111.328 30.0699 111.505 30.6525 111.885 30.9058H111.885ZM106.134 15.1489C106.616 15.1489 108.465 15.225 109.352 15.225C110.948 15.225 112.088 15.1492 115.102 15.1492C117.635 15.1492 119.763 15.833 121.283 17.1249C123.132 18.7209 124.095 20.9249 124.095 23.6099C124.095 27.4352 122.347 29.6392 120.599 30.9058C118.851 32.1977 116.571 32.9575 113.329 32.9575C111.606 32.9575 108.642 32.907 106.185 32.8815H106.16C106.033 32.6536 106.362 31.767 106.565 31.7417C107.224 31.6657 107.401 31.6401 107.731 31.5139C108.262 31.311 108.364 31.0324 108.44 30.0952C108.516 28.3471 108.49 26.2446 108.49 23.8633C108.49 22.1662 108.516 18.8474 108.465 17.7834C108.389 16.897 108.009 16.6689 107.249 16.5168C106.869 16.441 106.362 16.3395 105.653 16.2637C105.552 16.0861 106.008 15.3007 106.134 15.1489Z" fill="#D5D5D5"/>
<path id="Vector_2" fill-rule="evenodd" clip-rule="evenodd" d="M75.4817 31.8932C74.8484 31.8172 74.3924 31.7161 73.8352 31.4628C73.7591 31.412 73.6323 31.1589 73.6323 31.0573C73.5818 30.1707 73.5818 27.6375 73.5818 25.9404C73.5818 24.5723 73.354 23.3817 72.7712 22.5458C72.0871 21.5829 71.0994 21.0259 69.8325 21.0259C68.718 21.0259 67.2233 21.7857 65.982 22.8497C65.9567 22.875 65.7541 23.0526 65.7794 22.7737C65.7794 22.4951 65.8302 21.9378 65.8554 21.5576C65.881 21.2029 65.6781 21.0259 65.6781 21.0259C64.8675 21.4311 62.5876 21.9631 61.7515 22.0388C61.1437 22.1659 60.9916 22.7484 61.6252 22.951H61.6505C62.334 23.1536 62.7902 23.3817 63.1446 23.6098C63.398 23.8124 63.3727 24.0911 63.3727 24.3192C63.398 26.2188 63.398 29.1322 63.3222 30.7282C63.297 31.3615 63.1196 31.5893 62.6634 31.6906L62.7142 31.6654C62.3595 31.7414 62.0809 31.8172 61.6502 31.868C61.4981 32.02 61.4981 32.8307 61.6502 33.008C61.9288 33.008 63.398 32.932 64.6144 32.932C66.2861 32.932 67.1475 33.008 67.578 33.008C67.7553 32.8054 67.8061 32.0453 67.7048 31.868C67.2233 31.8427 66.8686 31.7922 66.5395 31.6906C66.0835 31.589 65.9567 31.3615 65.9312 30.8295C65.881 29.4866 65.881 26.6495 65.881 24.7244C65.881 24.1924 66.0328 23.939 66.1846 23.7869C66.7673 23.2804 67.7048 22.9258 68.5407 22.9258C69.3513 22.9258 69.883 23.1791 70.2885 23.5086C70.8457 23.9642 71.0231 24.6231 71.0991 25.1043C71.2257 26.1935 71.1752 28.3468 71.1752 30.2214C71.1752 31.2347 71.0991 31.488 70.7195 31.6146C70.5419 31.6906 70.0859 31.7922 69.5539 31.8424C69.3766 32.02 69.4273 32.8054 69.5539 32.9827C70.2885 32.9827 71.1499 32.9067 72.4165 32.9067C73.987 32.9067 75.0005 32.9827 75.4059 32.9827C75.5322 32.8307 75.583 32.0961 75.4817 31.8932ZM82.4987 22.2167C81.1564 22.2167 80.3202 23.2552 80.3202 24.8762C80.3202 26.523 81.0548 28.4228 83.132 28.4228C83.4867 28.4228 84.1455 28.2708 84.4491 27.9161C84.9306 27.4604 85.26 26.5482 85.26 25.5855C85.26 23.483 84.2213 22.2167 82.4987 22.2167ZM82.3214 33.4132C81.8149 33.4132 81.46 33.5653 81.2321 33.6921C80.1681 34.3756 79.6869 35.0344 79.6869 35.8201C79.6869 36.5544 79.9655 37.1369 80.5736 37.6437C81.3082 38.2769 82.3214 38.5811 83.6132 38.5811C86.1972 38.5811 87.3372 37.1877 87.3372 35.8201C87.3372 34.8571 86.8558 34.2238 85.8681 33.8694C85.1587 33.5653 83.8669 33.4132 82.3214 33.4132ZM82.4987 39.9998C80.9535 39.9998 79.8387 39.6704 78.8763 38.9358C77.9388 38.2264 77.5336 37.1624 77.5336 36.4278C77.5336 36.2253 77.5844 35.6677 78.0404 35.1613C78.3188 34.8571 78.9271 34.2746 80.371 33.2866C80.4215 33.2614 80.4468 33.2361 80.4468 33.1851C80.4468 33.1345 80.396 33.0838 80.3455 33.0588C79.1549 32.6028 78.8002 31.868 78.6987 31.4628V31.412C78.6737 31.2599 78.6229 31.1081 78.851 30.956C79.0284 30.8295 79.2817 30.6774 79.5601 30.5003C79.9908 30.2467 80.4468 29.9681 80.7254 29.7399C80.7762 29.6894 80.7762 29.6389 80.7762 29.5881C80.7762 29.5374 80.7254 29.4866 80.6746 29.4616C78.9018 28.8788 78.0151 27.5614 78.0151 25.5855C78.0151 24.2937 78.5977 23.1284 79.6361 22.3938C80.3455 21.8365 82.1188 21.1524 83.2841 21.1524H83.3601C84.5507 21.1777 85.2092 21.4311 86.1464 21.7605C86.6532 21.9378 87.1347 22.0136 87.7935 22.0136C88.7812 22.0136 89.2119 21.7097 89.5663 21.3553C89.5918 21.4058 89.6426 21.5326 89.6678 21.8618C89.6931 22.1912 89.5918 22.6724 89.3384 23.0271C89.1358 23.3057 88.6799 23.5086 88.2239 23.5086H88.0971C87.6411 23.4578 87.4383 23.407 87.4383 23.407L87.3372 23.4578C87.312 23.5086 87.3372 23.5591 87.3625 23.6351L87.388 23.6859C87.4385 23.9137 87.5398 24.5975 87.5398 24.7751C87.5398 26.8524 86.7039 27.764 85.8173 28.4481C84.9559 29.0814 83.9682 29.4866 82.8534 29.5881C82.8281 29.5881 82.7271 29.5881 82.4987 29.6134C82.3722 29.6134 82.1948 29.6389 82.1693 29.6389H82.1441C81.9415 29.6894 81.435 29.9428 81.435 30.3732C81.435 30.7532 81.6628 31.2094 82.7521 31.2854C82.9799 31.3107 83.2078 31.3107 83.4614 31.3362C84.9054 31.4372 86.704 31.5641 87.5398 31.8427C88.7051 32.2731 89.4397 33.3119 89.4397 34.5532C89.4397 36.4281 88.0974 38.1759 85.8681 39.2649C84.7788 39.7464 83.6893 39.9998 82.4987 39.9998ZM96.938 22.3433C96.4062 22.3433 95.9248 22.4695 95.5701 22.7229C94.5824 23.3309 94.0757 24.547 94.0757 26.3201C94.0757 29.6389 95.7474 31.9695 98.1288 31.9695C98.8381 31.9695 99.3954 31.7667 99.8766 31.3615C100.611 30.7532 100.991 29.5374 100.991 27.8401C100.991 24.547 99.3446 22.343 96.9383 22.343L96.938 22.3433ZM97.3942 33.1853C93.0877 33.1853 91.5425 30.0188 91.5425 27.055C91.5425 24.9777 92.3783 23.3817 94.0501 22.2417C95.241 21.5071 96.6596 21.1019 97.9262 21.1019C101.219 21.1019 103.525 23.4578 103.525 26.8524C103.525 29.1574 102.613 30.9813 100.865 32.0961C100.029 32.6533 98.5848 33.1853 97.3939 33.1853H97.3942ZM52.252 22.343C51.72 22.343 51.2388 22.4695 50.8839 22.7229C49.8962 23.3309 49.3895 24.547 49.3895 26.3201C49.3895 29.6389 51.0612 31.9695 53.4426 31.9695C54.1519 31.9695 54.7092 31.7667 55.1907 31.3615C55.925 30.7532 56.3052 29.5374 56.3052 27.8401C56.3052 24.547 54.6839 22.343 52.252 22.343ZM52.708 33.1853C48.4015 33.1853 46.8563 30.0188 46.8563 27.055C46.8563 24.9777 47.6922 23.3817 49.3639 22.2417C50.5547 21.5071 51.9734 21.1019 53.24 21.1019C56.5333 21.1019 58.8384 23.4578 58.8384 26.8524C58.8384 29.1574 57.9265 30.9813 56.1784 32.0961C55.3677 32.6533 53.9238 33.1853 52.708 33.1853ZM23.7532 32.932C23.7024 32.8562 23.6516 32.6281 23.6771 32.3494C23.6771 32.1466 23.7279 32.02 23.7532 31.9695C24.2852 31.8932 24.5638 31.8172 24.8677 31.7414C25.3744 31.6146 25.577 31.3362 25.6023 30.7029C25.6786 29.183 25.6786 26.2948 25.6531 24.2937V24.2429C25.6531 24.015 25.6531 23.7361 25.3744 23.5335C24.969 23.2804 24.4878 23.0526 23.8545 22.8747C23.6266 22.7992 23.4746 22.6724 23.4998 22.5206C23.4998 22.3685 23.6519 22.1912 23.9813 22.1404C24.8172 22.0644 26.9954 21.5326 27.8568 21.1524C27.9076 21.2029 27.9837 21.3553 27.9837 21.5579L27.9584 21.8362C27.9329 22.1151 27.9076 22.4446 27.9076 22.7737C27.9076 22.875 28.0092 22.951 28.1102 22.951C28.161 22.951 28.2118 22.9258 28.2623 22.9002C29.8835 21.6336 31.3527 21.1777 32.1126 21.1777C33.3542 21.1777 34.3169 21.7605 35.0515 22.9763C35.102 23.0526 35.1528 23.0778 35.2288 23.0778C35.2793 23.0778 35.3551 23.0526 35.3806 23.0018C36.8753 21.8618 38.37 21.1777 39.3577 21.1777C41.7136 21.1777 43.107 22.9258 43.107 25.8897C43.107 26.7255 43.107 27.8148 43.0817 28.803C43.0817 29.6894 43.0565 30.5001 43.0565 31.0829C43.0565 31.2091 43.2335 31.6146 43.5122 31.6906C43.8668 31.868 44.3483 31.944 44.9816 32.0453H45.0069C45.0577 32.2226 44.9564 32.8812 44.8551 33.008C44.703 33.008 44.4749 33.008 44.2218 32.9827C43.5805 32.9493 42.9385 32.9323 42.2964 32.932C40.7259 32.932 39.9153 32.9572 39.1296 33.008C39.0794 32.8054 39.0539 32.1974 39.1296 32.0453C39.5859 31.9695 39.8137 31.8932 40.0926 31.8174C40.5993 31.6654 40.7259 31.4372 40.7514 30.7787C40.7514 30.2975 40.8524 26.1935 40.7004 25.2056C40.5486 24.1924 39.7884 23.0018 38.1164 23.0018C37.4831 23.0018 36.4954 23.2552 35.5327 23.9895C35.4822 24.0403 35.4311 24.1668 35.4311 24.2429V24.2684C35.5327 24.8001 35.5327 25.4084 35.5327 26.3456V27.9921C35.5327 29.1322 35.5072 30.1962 35.5327 31.0065C35.5327 31.5641 35.8621 31.6906 36.1407 31.7922C36.2928 31.8172 36.3938 31.8427 36.5207 31.868C36.7485 31.9187 36.9766 31.9695 37.3313 32.0453C37.3821 32.1469 37.3821 32.476 37.306 32.7546C37.2805 32.9067 37.2297 32.9825 37.2045 33.008C36.3433 32.9827 35.4567 32.9572 34.1648 32.9572C33.7849 32.9572 33.1261 32.9827 32.5688 32.9827C32.1126 32.9827 31.6821 33.008 31.429 33.008C31.4035 32.9572 31.3527 32.7801 31.3527 32.5012C31.3527 32.2734 31.4035 32.0961 31.4543 32.0453C31.5808 32.02 31.6821 31.9948 31.809 31.9948C32.1126 31.944 32.3662 31.8932 32.6193 31.8427C33.0503 31.7161 33.2021 31.488 33.2274 30.9308C33.3034 29.6642 33.3794 26.0417 33.2021 25.1295C32.8982 23.6604 32.0623 22.9258 30.7194 22.9258C29.9343 22.9258 28.9461 23.3057 28.1357 23.914C28.0089 24.015 27.9076 24.2681 27.9076 24.4962V25.991C27.9076 27.8148 27.9076 30.0949 27.9329 31.0829C27.9584 31.3865 28.0594 31.7414 28.6422 31.868C28.769 31.8932 28.9716 31.944 29.225 31.9695L29.6807 32.0453C29.7317 32.1974 29.7062 32.8054 29.6049 33.008C29.3515 33.008 29.0477 32.9827 28.6927 32.9827C28.161 32.9572 27.4769 32.932 26.7171 32.932C25.8304 32.932 25.1971 32.9572 24.6904 32.9827C24.3357 32.932 24.0571 32.932 23.7532 32.932Z" fill="#D5D5D5"/>
<path id="Vector_3" fill-rule="evenodd" clip-rule="evenodd" d="M10.4278 39.0118L9.38931 38.6568C9.38931 38.6568 9.51614 33.3626 7.61598 32.9827C6.34966 31.5133 7.81911 -29.3348 12.3787 32.7798C12.3787 32.7798 10.808 33.5649 10.5294 34.9078C10.2252 36.2252 10.4278 39.0118 10.4278 39.0118Z" fill="white"/>
<path id="Vector_4" fill-rule="evenodd" clip-rule="evenodd" d="M10.4278 39.0118L9.38931 38.6568C9.38931 38.6568 9.51614 33.3626 7.61598 32.9827C6.34966 31.5133 7.81911 -29.3348 12.3787 32.7798C12.3787 32.7798 10.808 33.5649 10.5294 34.9078C10.2252 36.2252 10.4278 39.0118 10.4278 39.0118Z" fill="#D5D5D5"/>
<path id="Vector_5" fill-rule="evenodd" clip-rule="evenodd" d="M10.9857 33.8946C10.9857 33.8946 20.0802 27.9161 17.9519 15.4777C15.9002 6.43452 11.0617 3.47063 10.5297 2.33059C9.94718 1.51996 9.38965 0.101562 9.38965 0.101562L9.76985 25.2561C9.76985 25.2816 8.98447 32.9572 10.9859 33.8949" fill="white"/>
<path id="Vector_6" fill-rule="evenodd" clip-rule="evenodd" d="M10.9857 33.8946C10.9857 33.8946 20.0802 27.9161 17.9519 15.4777C15.9002 6.43452 11.0617 3.47063 10.5297 2.33059C9.94718 1.51996 9.38965 0.101562 9.38965 0.101562L9.76985 25.2561C9.76985 25.2816 8.98447 32.9572 10.9859 33.8949" fill="#D5D5D5"/>
<path id="Vector_7" fill-rule="evenodd" clip-rule="evenodd" d="M8.8579 34.2238C8.8579 34.2238 0.320616 28.3973 0.827363 18.138C1.30858 7.87845 7.33766 2.83734 8.50295 1.92542C9.26307 1.11479 9.28833 0.81063 9.33911 0C9.87112 1.14004 9.76982 17.0488 9.84559 18.9231C10.0734 26.1427 9.44041 32.8562 8.8579 34.2238Z" fill="white"/>
<path id="Vector_8" fill-rule="evenodd" clip-rule="evenodd" d="M8.8579 34.2238C8.8579 34.2238 0.320616 28.3973 0.827363 18.138C1.30858 7.87845 7.33766 2.83734 8.50295 1.92542C9.26307 1.11479 9.28833 0.81063 9.33911 0C9.87112 1.14004 9.76982 17.0488 9.84559 18.9231C10.0734 26.1427 9.44041 32.8562 8.8579 34.2238Z" fill="#D5D5D5"/>
</g>
</svg>
