<svg width="102" height="40" viewBox="0 0 102 40" fill="none" xmlns="http://www.w3.org/2000/svg">
<path id="Vector" fill-rule="evenodd" clip-rule="evenodd" d="M55.2955 3.86773C55.6056 3.86773 55.8635 4.12624 55.8635 4.43691C55.8635 4.74758 55.6056 5.00609 55.2955 5.00609H46.7178C46.4072 5.00609 46.1486 4.747 46.1486 4.43691C46.1486 4.12682 46.4072 3.86773 46.7178 3.86773H55.2955ZM51 0C53.523 0 56.0843 0.387759 57.9988 1.0346C60.5345 1.9017 62.165 3.22089 62.165 4.68267C62.165 6.28702 60.185 7.7743 57.3392 8.5504C54.4933 9.32649 52.3841 9.48183 49.8616 9.36533C47.5328 9.26216 45.2172 8.88657 43.0831 7.98122V22.2118C41.1814 20.9569 39.8489 19.2882 39.8489 16.9594V5.44601C39.8489 2.59955 42.4623 1.48728 44.5449 0.866515C46.6274 0.245174 48.4775 0 51 0ZM58.4775 19.5601V12.0565C58.4775 11.3319 57.3525 11.5261 57.3525 12.406V20.0133C57.3525 20.6857 58.4775 20.5437 58.4775 19.5601ZM53.7943 22.355V11.591C53.7943 10.841 54.1948 10.3107 54.9332 10.2069C55.9482 10.0716 56.9514 9.8596 57.9344 9.57283C58.9067 9.29002 59.8507 8.91767 60.7542 8.46056C61.1947 8.2148 61.7117 8.39564 61.7117 8.97815V16.7664C61.7117 17.7882 61.6984 18.875 61.233 19.8192C60.7676 20.7767 59.9526 21.5394 59.0212 22.148C57.9866 22.8337 56.6668 23.3641 55.489 23.6614C54.4023 23.9071 53.7943 23.3635 53.7943 22.355ZM52.6553 11.6814V15.4721C52.6553 16.4163 51.7633 17.0249 51.0127 17.0764V17.0892C51.7494 17.193 52.6553 17.7233 52.6553 18.7191V22.3671C52.6553 23.04 52.6553 23.5182 52.9405 23.997C52.2682 24.0747 51.6329 24.1007 51.0127 24.1007C50.3945 24.1049 49.7765 24.0703 49.1626 23.997C48.8653 23.4017 48.9041 22.9746 48.9041 22.341V19.4436C48.9041 18.6675 48.5679 18.0334 47.7658 17.9818V23.8677C47.1356 23.7693 46.5131 23.6268 45.9029 23.4411C45.3214 23.2664 44.7547 23.0458 44.2081 22.7815V9.62442C44.7906 9.80583 45.3725 9.93509 45.9678 10.0516C46.5631 10.1553 47.1711 10.2324 47.7663 10.3107V16.1711C48.5163 16.3264 48.9047 15.8216 48.9047 15.0716V11.6304C48.9047 11.2421 48.9174 10.7506 49.1504 10.4144C49.7584 10.4533 50.3276 10.466 50.949 10.466C51.5831 10.4788 52.2432 10.4533 52.9023 10.4272C52.7075 10.8277 52.6553 11.1899 52.6553 11.6814ZM98.4526 39.7548L95.3349 35.7961L98.3622 32.0182H95.7742L93.33 35.2142V32.0182H91.0782V39.7548H93.33V36.5983L95.7742 39.7548H98.4526ZM58.3088 39.7548L55.1911 35.7961L58.2184 32.0182H55.6316L53.1863 35.2142V32.0182H50.9223V39.7548H53.1863V36.5983L55.6177 39.7548H58.3088ZM14.841 39.7548L11.7233 35.7961L14.7506 32.0182H12.1632L9.71846 35.2142V32.0182H7.46726V39.7548H9.71846V36.5983L12.1632 39.7548H14.841ZM101.933 39.7548V32.0182H99.6176V39.7548H101.933ZM89.7845 37.3483C89.7845 36.52 89.4617 36.003 88.7372 35.537C88.401 35.3307 87.8318 35.1748 87.0424 34.9684C85.9296 34.6838 85.3604 34.5418 85.3604 34.1274C85.3604 33.7779 85.6705 33.5455 86.2657 33.5455C86.952 33.5455 87.2621 33.8034 87.2742 34.3992H89.526C89.4866 32.821 88.3488 31.8762 86.3179 31.8762C84.2475 31.8762 83.0698 32.8076 83.0698 34.2822C83.0698 35.5115 83.8725 36.2488 85.5934 36.7014C86.8216 37.0254 87.4818 37.1286 87.4818 37.6329C87.4818 38.0334 87.1073 38.2797 86.4211 38.2797C85.6965 38.2797 85.3465 37.9175 85.3465 37.1802V37.1541H82.9927C83.057 39.0819 84.2087 40 86.4726 40C88.5946 40 89.7845 39.0048 89.7845 37.3483ZM82.6049 39.7548V37.7882H80.0309V32.0182H77.7408V39.7548H82.6049ZM48.9557 39.7548V32.0182H46.7822V36.2876L44.6214 32.0182H42.3058V39.7548H44.4794V35.5764L46.6657 39.7548H48.9557ZM74.3379 35.9126C74.3379 37.3095 73.7438 38.1244 72.9411 38.1244C72.023 38.1244 71.466 37.3616 71.466 35.9642C71.466 34.5667 72.0491 33.7518 72.8507 33.7518C73.7693 33.7518 74.3379 34.5152 74.3379 35.9126ZM76.6923 35.9769C76.6923 34.7221 76.2918 33.7002 75.5412 32.9496C74.8428 32.2512 73.9113 31.8756 72.8379 31.8756C71.7511 31.8756 70.833 32.264 70.1729 32.9751C69.4484 33.7773 69.1122 34.7215 69.1122 35.9114C69.1122 37.1535 69.4994 38.1493 70.276 38.926C70.9623 39.6244 71.8677 39.9994 72.9411 39.9994C74.0412 39.9994 74.9593 39.6117 75.6195 38.8744C76.3301 38.1122 76.6923 37.1414 76.6923 35.9769ZM66.2008 34.7087C66.2008 35.2652 65.8907 35.5758 65.2955 35.5758H64.3391V33.8028H65.2572C65.878 33.8034 66.2008 34.1141 66.2008 34.7087ZM68.4908 34.7997C68.4908 33.0273 67.3919 32.0182 65.3349 32.0182H62.0746V39.7548H64.3646V37.375H65.878C67.4162 37.3744 68.4908 36.3009 68.4908 34.7997ZM30.5856 37.2324C30.5856 37.7366 30.2621 37.9691 29.6153 37.9691H28.3088V36.5073H29.6025C30.2621 36.5073 30.5856 36.7275 30.5856 37.2324ZM30.3265 34.3987C30.3265 34.8647 30.0291 35.0327 29.4084 35.0327H28.3088V33.7779H29.3956C30.0291 33.7779 30.3265 33.946 30.3265 34.3987ZM32.9011 37.3616C32.9011 36.469 32.4351 35.8222 31.6462 35.4982C32.267 35.1748 32.5643 34.6705 32.5643 33.9981C32.5643 33.2603 32.2148 32.6911 31.4903 32.2773C31.1797 32.0964 30.6366 32.0182 29.8477 32.0182H26.0443V39.7548H29.628C30.8568 39.7548 31.6978 39.6383 32.3319 38.9271C32.7069 38.4994 32.9011 37.969 32.9011 37.3616ZM38.1408 37.1159H36.6274L37.3902 34.4247L38.1408 37.1159ZM41.2457 39.7548L38.6068 32.0182H36.1747L33.5358 39.7548H35.9029L36.1875 38.7324H38.5807L38.8653 39.7548H41.2457ZM19.9387 35.9126C19.9387 37.3095 19.3435 38.1244 18.5413 38.1244C17.6226 38.1244 17.0534 37.3616 17.0534 35.9642C17.0534 34.5667 17.6487 33.7518 18.4509 33.7518C19.369 33.7518 19.9387 34.5152 19.9387 35.9126ZM22.2931 35.9769C22.2931 34.7221 21.892 33.7002 21.1286 32.9496C20.443 32.2512 19.5115 31.8756 18.4375 31.8756C17.3508 31.8756 16.4327 32.264 15.7725 32.9751C15.048 33.7773 14.7112 34.7215 14.7112 35.9114C14.7112 37.1535 15.0996 38.1493 15.8629 38.926C16.5613 39.6244 17.4673 39.9994 18.5407 39.9994C19.6402 39.9994 20.5589 39.6117 21.2185 38.8744C21.9308 38.1122 22.2931 37.1414 22.2931 35.9769ZM4.20695 34.7087C4.20695 35.2652 3.89628 35.5758 3.28827 35.5758H2.34409V33.8028H3.24944C3.88353 33.8034 4.20695 34.1141 4.20695 34.7087ZM6.49699 34.7997C6.49699 33.0273 5.39747 32.0182 3.34044 32.0182H0.0673828V39.7548H2.37017V37.375H3.88353C5.41022 37.3744 6.49699 36.3009 6.49699 34.7997Z" fill="#D5D5D5"/>
</svg>
