<svg width="134" height="40" viewBox="0 0 134 40" fill="none" xmlns="http://www.w3.org/2000/svg">
<path id="Vector" d="M20.3173 0C9.27187 0 0.317383 8.95424 0.317383 19.9996C0.317383 31.0462 9.27187 40 20.3173 40C31.3632 40 40.3172 31.0462 40.3172 19.9996C40.3172 8.95495 31.3636 0.000954567 20.317 0.000954567L20.3173 0ZM29.4891 28.8452C29.1299 29.4344 28.3623 29.619 27.775 29.2601C23.0785 26.3896 17.1672 25.7412 10.2054 27.3316C9.53457 27.4854 8.86586 27.0648 8.71302 26.3942C8.55945 25.7233 8.9781 25.0546 9.65063 24.9018C17.2691 23.16 23.8041 23.9097 29.0757 27.1309C29.6632 27.4916 29.8495 28.2582 29.4888 28.8457L29.4891 28.8452ZM31.937 23.4003C31.4847 24.1342 30.5251 24.3644 29.7922 23.9137C24.4174 20.6098 16.2217 19.6529 9.86296 21.5831C9.03829 21.8321 8.1673 21.3674 7.91701 20.5442C7.66863 19.7195 8.13363 18.8502 8.95686 18.5994C16.2202 16.3955 25.2497 17.4631 31.4233 21.2568C32.1565 21.7082 32.3882 22.6683 31.9368 23.4005L31.937 23.4003ZM32.1472 17.7296C25.7004 13.901 15.0664 13.549 8.91218 15.4168C7.92393 15.7166 6.87883 15.1587 6.57935 14.1704C6.27986 13.1817 6.83728 12.1373 7.82624 11.8368C14.8909 9.69221 26.6351 10.1066 34.0563 14.5122C34.9453 15.0397 35.2369 16.1877 34.71 17.0755C34.1846 17.9644 33.0335 18.2574 32.1474 17.7296H32.1472ZM54.7305 18.4633C51.2773 17.6398 50.6625 17.0619 50.6625 15.8474C50.6625 14.7001 51.7427 13.928 53.3491 13.928C54.9062 13.928 56.4502 14.5143 58.069 15.7213C58.1179 15.7579 58.1793 15.7724 58.2397 15.7629C58.3002 15.7538 58.3537 15.7206 58.389 15.6707L60.0751 13.2939C60.1444 13.196 60.1255 13.0611 60.0321 12.9863C58.1055 11.4404 55.936 10.6888 53.4002 10.6888C49.6717 10.6888 47.0673 12.9264 47.0673 16.1278C47.0673 19.5609 49.3139 20.7765 53.1963 21.7149C56.5006 22.476 57.0583 23.1137 57.0583 24.2536C57.0583 25.5167 55.9306 26.302 54.1157 26.302C52.1001 26.302 50.456 25.623 48.6168 24.0303C48.5712 23.9909 48.5086 23.973 48.4508 23.9763C48.3899 23.9813 48.3343 24.0095 48.2956 24.0561L46.405 26.306C46.3258 26.3994 46.3358 26.5389 46.4275 26.6196C48.5674 28.53 51.1992 29.539 54.0393 29.539C58.0571 29.539 60.6533 27.3438 60.6533 23.946C60.6605 21.0777 58.9434 19.4895 54.7376 18.4664L54.7305 18.4633ZM69.743 15.0576C68.0015 15.0576 66.573 15.7435 65.3952 17.149V15.567C65.3952 15.4421 65.2939 15.3404 65.1692 15.3404H62.0772C61.9523 15.3404 61.8512 15.4421 61.8512 15.567V33.145C61.8512 33.2699 61.9523 33.3717 62.0772 33.3717H65.1692C65.2939 33.3717 65.3952 33.2699 65.3952 33.145V27.5964C66.5733 28.9185 68.0019 29.5646 69.743 29.5646C72.9788 29.5646 76.2545 27.0736 76.2545 22.3119C76.2593 17.5491 72.9826 15.0574 69.7466 15.0574L69.743 15.0576ZM72.659 22.3119C72.659 24.7367 71.1654 26.4288 69.0267 26.4288C66.9124 26.4288 65.3175 24.6598 65.3175 22.3119C65.3175 19.9643 66.9124 18.1951 69.0267 18.1951C71.1308 18.1948 72.6593 19.9258 72.6593 22.3117L72.659 22.3119ZM84.6504 15.0576C80.4831 15.0576 77.2184 18.2665 77.2184 22.3638C77.2184 26.4164 80.4607 29.5915 84.5993 29.5915C88.7813 29.5915 92.0561 26.3934 92.0561 22.3119C92.0561 18.2445 88.8033 15.0581 84.6502 15.0581L84.6504 15.0576ZM84.6504 26.4529C82.4339 26.4529 80.7628 24.672 80.7628 22.3107C80.7628 19.9394 82.3761 18.2187 84.5993 18.2187C86.8302 18.2187 88.5124 19.9996 88.5124 22.3626C88.5124 24.7334 86.8884 26.4529 84.6506 26.4529H84.6504ZM100.955 15.3404H97.5524V11.8617C97.5524 11.737 97.4516 11.6353 97.3267 11.6353H94.2351C94.11 11.6353 94.0085 11.737 94.0085 11.8617V15.3404H92.5218C92.3974 15.3404 92.2966 15.4421 92.2966 15.5671V18.2245C92.2966 18.3491 92.3974 18.4511 92.5218 18.4511H94.0085V25.3271C94.0085 28.1058 95.3915 29.5147 98.1191 29.5147C99.2283 29.5147 100.148 29.2856 101.016 28.7939C101.086 28.7545 101.13 28.6785 101.13 28.5978V26.0672C101.13 25.9891 101.089 25.9153 101.022 25.8745C100.955 25.8322 100.871 25.8301 100.802 25.8642C100.206 26.164 99.6307 26.3022 98.987 26.3022C97.9949 26.3022 97.5524 25.8518 97.5524 24.8423V18.4523H100.955C101.08 18.4523 101.18 18.3506 101.18 18.2257V15.5685C101.185 15.4436 101.085 15.3419 100.958 15.3419L100.955 15.3404ZM112.81 15.354V14.9268C112.81 13.6698 113.292 13.1093 114.373 13.1093C115.018 13.1093 115.535 13.2373 116.115 13.4308C116.187 13.4532 116.261 13.442 116.319 13.3992C116.379 13.3565 116.413 13.2879 116.413 13.2153V10.6098C116.413 10.5102 116.349 10.422 116.253 10.3927C115.64 10.2104 114.856 10.0234 113.683 10.0234C110.827 10.0234 109.317 11.6317 109.317 14.6726V15.327H107.832C107.707 15.327 107.605 15.4288 107.605 15.5534V18.2244C107.605 18.3491 107.707 18.4511 107.832 18.4511H109.317V29.057C109.317 29.1819 109.418 29.2837 109.543 29.2837H112.635C112.76 29.2837 112.861 29.1819 112.861 29.057V18.4518H115.748L120.171 29.0552C119.669 30.1693 119.175 30.3909 118.501 30.3909C117.956 30.3909 117.383 30.2283 116.796 29.9073C116.741 29.8769 116.675 29.8719 116.616 29.8903C116.557 29.9111 116.507 29.955 116.482 30.0124L115.434 32.3115C115.384 32.4202 115.427 32.5477 115.532 32.6041C116.626 33.1966 117.613 33.4495 118.834 33.4495C121.117 33.4495 122.379 32.386 123.491 29.5249L128.856 15.6635C128.883 15.5938 128.875 15.515 128.832 15.4531C128.789 15.3917 128.721 15.3547 128.646 15.3547H125.427C125.33 15.3547 125.244 15.4161 125.213 15.5066L121.915 24.9254L118.303 15.5004C118.27 15.4128 118.186 15.3547 118.092 15.3547H112.81L112.81 15.354ZM105.937 15.3404H102.845C102.72 15.3404 102.618 15.4421 102.618 15.5671V29.0571C102.618 29.182 102.72 29.2837 102.845 29.2837H105.937C106.061 29.2837 106.163 29.182 106.163 29.0571V15.568C106.164 15.5382 106.158 15.5087 106.146 15.4811C106.135 15.4536 106.118 15.4286 106.097 15.4075C106.076 15.3864 106.051 15.3698 106.023 15.3584C105.996 15.3471 105.966 15.3413 105.937 15.3414L105.937 15.3404ZM104.408 9.19809C103.183 9.19809 102.189 10.1897 102.189 11.4146C102.189 12.6403 103.184 13.6331 104.408 13.6331C105.633 13.6331 106.626 12.6403 106.626 11.4146C106.626 10.1899 105.632 9.19809 104.41 9.19809H104.408ZM131.496 19.6777C130.272 19.6777 129.32 18.6949 129.32 17.5015C129.32 16.3081 130.285 15.3141 131.507 15.3141C132.731 15.3141 133.683 16.2967 133.683 17.4891C133.683 18.6825 132.718 19.6777 131.496 19.6777H131.496ZM131.508 15.5305C130.393 15.5305 129.55 16.4166 129.55 17.5015C129.55 18.586 130.387 19.4601 131.497 19.4601C132.611 19.4601 133.455 18.5748 133.455 17.4891C133.455 16.4046 132.617 15.5305 131.509 15.5305H131.508ZM131.99 17.7129L132.606 18.5746H132.087L131.533 17.7841H131.056V18.5746H130.622V16.2905H131.64C132.171 16.2905 132.52 16.562 132.52 17.0191C132.522 17.3936 132.305 17.6224 131.992 17.7129L131.99 17.7129ZM131.622 16.6824H131.056V17.4048H131.622C131.905 17.4048 132.074 17.2665 132.074 17.0432C132.074 16.8082 131.904 16.6824 131.623 16.6824L131.622 16.6824Z" fill="#D5D5D5"/>
</svg>
